<?xml version="1.0" standalone="no"?>
<!DOCTYPE svg PUBLIC "-//W3C//DTD SVG 20010904//EN"
 "http://www.w3.org/TR/2001/REC-SVG-20010904/DTD/svg10.dtd">
<svg version="1.0" xmlns="http://www.w3.org/2000/svg"
 width="500.000000pt" height="500.000000pt" viewBox="0 0 500.000000 500.000000"
 preserveAspectRatio="xMidYMid meet">

<g transform="translate(0.000000,500.000000) scale(0.100000,-0.100000)"
fill="#000000" stroke="none">
<path d="M0 2500 l0 -580 2500 0 2500 0 0 580 0 580 -2500 0 -2500 0 0 -580z
m4970 0 l0 -550 -2470 0 -2470 0 0 550 0 550 2470 0 2470 0 0 -550z"/>
<path d="M100 2500 l0 -470 1165 0 1165 0 0 470 0 470 -1165 0 -1165 0 0 -470z
m466 154 c53 -39 69 -70 69 -134 0 -64 -16 -95 -69 -134 -22 -17 -46 -22 -117
-24 l-89 -4 0 162 0 162 89 -4 c71 -2 95 -7 117 -24z m372 -127 c34 -84 62
-156 62 -160 0 -4 -9 -7 -19 -7 -13 0 -24 11 -32 35 l-13 35 -81 0 -81 0 -13
-35 c-8 -24 -18 -35 -33 -35 -23 0 -28 -16 50 177 76 191 77 191 160 -10z
m282 32 l85 -122 3 122 c2 113 4 121 22 121 19 0 20 -8 20 -160 0 -205 -4
-207 -121 -41 l-84 120 -3 -120 c-2 -111 -4 -119 -22 -119 -19 0 -20 8 -20
160 0 204 3 205 120 39z m300 -39 c0 -153 -1 -160 -20 -160 -19 0 -20 7 -20
160 0 153 1 160 20 160 19 0 20 -7 20 -160z m350 140 c0 -18 -7 -20 -55 -20
l-55 0 0 -140 c0 -133 -1 -140 -20 -140 -19 0 -20 7 -20 140 l0 140 -55 0
c-48 0 -55 2 -55 20 0 19 7 20 130 20 123 0 130 -1 130 -20z m152 -61 l46 -81
47 81 c34 59 52 81 67 81 25 0 22 -9 -42 -116 -46 -74 -50 -87 -50 -143 0 -54
-2 -61 -20 -61 -18 0 -20 7 -20 56 0 50 -6 66 -56 152 -31 54 -59 100 -61 105
-2 4 6 7 19 7 18 0 33 -17 70 -81z"/>
<path d="M400 2521 l0 -121 56 0 c67 0 107 21 130 68 22 46 11 102 -27 138
-25 24 -40 29 -94 32 l-65 4 0 -121z"/>
<path d="M823 2545 l-31 -75 64 0 63 0 -30 72 c-16 39 -31 73 -32 75 -2 1 -17
-31 -34 -72z"/>
<path d="M3352 2832 c-36 -34 -49 -86 -32 -136 16 -51 56 -76 120 -76 46 0 56
4 86 34 19 19 34 41 34 50 0 23 -45 20 -79 -5 -36 -27 -71 -21 -91 14 -13 24
-13 30 0 55 19 32 52 39 85 18 28 -18 85 -21 85 -5 0 6 -15 26 -34 45 -30 30
-40 34 -89 34 -46 0 -60 -4 -85 -28z"/>
<path d="M3610 2840 c-25 -25 -26 -72 -2 -93 10 -9 36 -23 58 -30 46 -16 59
-47 21 -47 -14 0 -27 7 -31 15 -8 23 -66 20 -66 -3 0 -36 42 -62 98 -62 61 0
92 23 92 68 0 35 -23 57 -76 75 -42 15 -60 47 -25 47 11 0 24 -7 29 -16 6 -10
19 -14 38 -12 23 2 28 7 26 23 -8 54 -119 78 -162 35z"/>
<path d="M3830 2840 c-25 -25 -26 -72 -2 -93 10 -9 36 -23 58 -30 46 -16 59
-47 21 -47 -14 0 -27 7 -31 15 -8 23 -66 20 -66 -3 0 -36 42 -62 98 -62 61 0
92 23 92 68 0 35 -23 57 -76 75 -42 15 -60 47 -25 47 11 0 24 -7 29 -16 6 -10
19 -14 38 -12 23 2 28 7 26 23 -8 54 -119 78 -162 35z"/>
<path d="M2940 2270 l0 -120 85 0 85 0 0 29 c0 28 -2 30 -47 33 l-48 3 -3 88
-3 87 -34 0 -35 0 0 -120z"/>
<path d="M3140 2270 l0 -120 35 0 35 0 0 120 0 120 -35 0 -35 0 0 -120z"/>
<path d="M3260 2270 l0 -120 80 0 c73 0 83 3 105 25 29 28 32 51 10 75 -13 14
-14 22 -4 43 16 35 5 71 -26 85 -14 7 -57 12 -95 12 l-70 0 0 -120z m128 48
c3 -14 -3 -18 -27 -18 -25 0 -31 4 -31 21 0 16 5 20 27 17 17 -2 29 -10 31
-20z m2 -83 c17 -20 4 -35 -31 -35 -24 0 -29 4 -29 25 0 20 5 25 24 25 13 0
29 -7 36 -15z"/>
<path d="M3500 2270 l0 -120 35 0 c33 0 35 2 35 35 0 22 5 35 13 35 7 0 21
-16 30 -35 15 -31 21 -35 57 -35 l40 0 -20 41 c-21 39 -21 42 -4 60 28 31 23
87 -10 115 -23 21 -38 24 -102 24 l-74 0 0 -120z m134 43 c8 -20 -17 -43 -46
-43 -13 0 -18 8 -18 30 0 26 3 30 29 30 18 0 31 -6 35 -17z"/>
<path d="M3811 2368 c-5 -13 -25 -65 -45 -117 -20 -51 -36 -95 -36 -97 0 -2
16 -4 35 -4 22 0 38 6 41 15 4 10 20 15 49 15 29 0 45 -5 49 -15 3 -10 19 -15
42 -15 25 0 35 4 31 13 -3 6 -24 60 -47 120 l-41 107 -35 0 c-27 0 -36 -5 -43
-22z m63 -115 c6 -20 4 -23 -18 -23 -29 0 -31 7 -14 45 12 27 19 23 32 -22z"/>
<path d="M4010 2270 l0 -120 35 0 c33 0 35 2 35 35 0 19 5 35 10 35 6 0 18
-16 27 -35 15 -31 21 -35 55 -35 43 0 45 4 19 46 -18 29 -18 31 0 53 19 23 24
65 13 96 -11 28 -60 45 -129 45 l-65 0 0 -120z m128 36 c4 -20 -13 -36 -40
-36 -13 0 -18 8 -18 31 0 27 3 30 27 27 18 -2 29 -10 31 -22z"/>
<path d="M4276 2311 c32 -58 44 -90 44 -120 0 -40 1 -41 35 -41 35 0 35 0 35
44 0 33 10 62 40 115 22 39 40 73 40 76 0 3 -17 5 -38 5 -35 0 -40 -4 -59 -42
l-20 -43 -22 43 c-20 39 -25 42 -61 42 l-39 0 45 -79z"/>
</g>
</svg>
